HIERARCHY
ROOT Hips
{
	OFFSET 54.029099 -57.559414 96.624992
	CHANNELS 6 Xposition Yposition Zposition Xrotation Yrotation Zrotation
	JOINT spine
	{
		OFFSET 0.000000 -0.467659 8.132492
		CHANNELS 3 Xrotation Yrotation Zrotation
		JOINT spine1
		{
			OFFSET 0.000000 -0.000004 10.349800
			CHANNELS 3 Xrotation Yrotation Zrotation
			JOINT spine2
			{
				OFFSET 0.000000 0.000000 9.916992
				CHANNELS 3 Xrotation Yrotation Zrotation
				JOINT Neck
				{
					OFFSET 0.000000 -1.213905 25.460999
					CHANNELS 3 Xrotation Yrotation Zrotation
					JOINT Head
					{
						OFFSET 0.000000 -0.000004 7.692444
						CHANNELS 3 Xrotation Yrotation Zrotation
						End Site
						{
							OFFSET 0.000000 6.140625 18.619995
						}
					}
				}
				JOINT RightShoulder
				{
					OFFSET -4.175751 0.581440 10.709595
					CHANNELS 3 Xrotation Yrotation Zrotation
					JOINT RightArm
					{
						OFFSET 0.000000 0.000000 14.046600
						CHANNELS 3 Xrotation Yrotation Zrotation
						JOINT RightArmRoll
						{
							OFFSET 0.000000 -0.000004 7.090988
							CHANNELS 3 Xrotation Yrotation Zrotation
							JOINT RightForeArm
							{
								OFFSET 0.000000 -0.000004 20.653503
								CHANNELS 3 Xrotation Yrotation Zrotation
								JOINT RightForeArmRoll
								{
									OFFSET 0.000000 0.000000 7.957184
									CHANNELS 3 Xrotation Yrotation Zrotation
									JOINT RightHand
									{
										OFFSET 0.000000 -0.000004 15.968307
										CHANNELS 3 Xrotation Yrotation Zrotation
										End Site
										{
											OFFSET 0.000000 0.000000 0.100006
										}
									}
								}
							}
						}
					}
				}
				JOINT LeftShoulder
				{
					OFFSET 4.175751 0.581440 10.709595
					CHANNELS 3 Xrotation Yrotation Zrotation
					JOINT LeftArm
					{
						OFFSET 0.000000 0.000000 14.046600
						CHANNELS 3 Xrotation Yrotation Zrotation
						JOINT LeftArmRoll
						{
							OFFSET 0.000000 -0.000004 7.090973
							CHANNELS 3 Xrotation Yrotation Zrotation
							JOINT LeftForeArm
							{
								OFFSET 0.000000 -0.000004 20.653503
								CHANNELS 3 Xrotation Yrotation Zrotation
								JOINT LeftForeArmRoll
								{
									OFFSET 0.000000 0.000000 7.957184
									CHANNELS 3 Xrotation Yrotation Zrotation
									JOINT LeftHand
									{
										OFFSET 0.000000 -0.000004 15.968292
										CHANNELS 3 Xrotation Yrotation Zrotation
										End Site
										{
											OFFSET 0.000000 0.000000 0.100006
										}
									}
								}
							}
						}
					}
				}
			}
		}
	}
	JOINT RightUpLeg
	{
		OFFSET -7.208340 1.108841 -1.321823
		CHANNELS 3 Xrotation Yrotation Zrotation
		JOINT RightUpLegRoll
		{
			OFFSET 0.000000 -0.000004 18.723801
			CHANNELS 3 Xrotation Yrotation Zrotation
			JOINT RightLeg
			{
				OFFSET 0.000000 0.000004 -23.186600
				CHANNELS 3 Xrotation Yrotation Zrotation
				JOINT RightLegRoll
				{
					OFFSET 0.000000 -0.000004 23.262398
					CHANNELS 3 Xrotation Yrotation Zrotation
					JOINT RightFoot
					{
						OFFSET 0.000000 -0.000004 19.362091
						CHANNELS 3 Xrotation Yrotation Zrotation
						JOINT RightToeBase
						{
							OFFSET 0.000000 0.000000 16.185699
							CHANNELS 3 Xrotation Yrotation Zrotation
							End Site
							{
								OFFSET 0.006859 0.903519 7.838623
							}
						}
					}
				}
			}
		}
	}
	JOINT LeftUpLeg
	{
		OFFSET 7.208340 1.108841 -1.321823
		CHANNELS 3 Xrotation Yrotation Zrotation
		JOINT LeftUpLegRoll
		{
			OFFSET 0.000000 -0.000004 18.723900
			CHANNELS 3 Xrotation Yrotation Zrotation
			JOINT LeftLeg
			{
				OFFSET 0.000000 -0.000004 23.186493
				CHANNELS 3 Xrotation Yrotation Zrotation
				JOINT LeftLegRoll
				{
					OFFSET 0.000000 -0.000004 23.477493
					CHANNELS 3 Xrotation Yrotation Zrotation
					JOINT LeftFoot
					{
						OFFSET 0.000000 -0.000004 19.147003
						CHANNELS 3 Xrotation Yrotation Zrotation
						JOINT LeftToeBase
						{
							OFFSET 0.000000 0.000000 16.185699
							CHANNELS 3 Xrotation Yrotation Zrotation
							End Site
							{
								OFFSET -0.030746 0.903519 7.838623
							}
						}
					}
				}
			}
		}
	}
}
MOTION
Frames: 10
Frame Time: 0.041667
54.873302 -25.871515 70.428505 35.123572 -1.844333 -2.918413 2.928368 -0.927440 -0.159035 9.858541 -1.861165 -0.262718 11.503976 -1.864180 -0.240398 -33.898304 10.346262 1.195189 -6.417351 -2.685313 -3.429847 -15.553674 -40.995530 -17.937955 -45.490597 -132.538783 -93.504197 0.000002 0.000001 -0.000004 84.508824 -2.066400 -1.340205 -0.000009 0.000002 -2.999999 -4.999690 -7.998726 0.000051 -17.773356 53.894960 20.971640 -53.829073 124.696756 93.441414 0.000001 0.000005 0.000006 73.567503 -1.900229 -0.120484 0.000009 -0.000005 2.999966 -5.000162 7.998812 -0.000128 -100.884510 -171.677925 0.091951 179.999991 0.000005 -0.469994 108.775168 -4.358311 -5.725126 -0.000002 0.000000 1.063069 69.674405 7.109329 1.509991 25.456959 -7.355614 0.000087 -100.346708 166.986364 -2.132616 -0.000035 -0.000004 -0.609986 -72.819358 5.477010 6.585212 -0.000002 -0.000000 -1.495150 71.509970 -7.606237 0.031152 25.460288 7.355620 -0.000823 
54.856503 -25.965309 70.560387 35.119832 -1.833557 -2.907384 2.922997 -0.928228 -0.159650 9.847795 -1.862891 -0.263308 11.493275 -1.865918 -0.240966 -33.990331 10.265844 1.168304 -6.407895 -2.645184 -3.430816 -15.558771 -41.083325 -17.947005 -45.633488 -132.704415 -93.492750 0.000004 0.000000 -0.000001 84.176406 -2.248477 -1.127378 -0.000005 -0.000000 -2.999999 -4.999696 -7.998721 0.000053 -17.778474 53.887061 20.977855 -53.936645 124.884750 93.514620 -0.000000 0.000006 0.000006 73.220844 -1.756289 -0.263751 0.000004 -0.000005 2.999971 -5.000163 7.998816 -0.000123 -100.689399 -171.719207 0.063656 179.999991 0.000005 -0.468000 108.900960 -4.355397 -5.708684 -0.000002 0.000000 1.055650 69.739469 7.094298 1.544123 25.456957 -7.355613 0.000088 -100.148783 167.004996 -2.109249 -0.000036 -0.000004 -0.607302 -72.681785 5.501536 6.578939 -0.000002 -0.000001 -1.485320 71.562658 -7.594708 0.005925 25.460290 7.355621 -0.000823 
54.848003 -26.061211 70.681900 35.115167 -1.822286 -2.895983 2.917614 -0.929016 -0.160231 9.837032 -1.864656 -0.263976 11.482485 -1.867693 -0.241613 -34.082729 10.184247 1.142622 -6.396614 -2.602548 -3.430015 -15.565936 -41.171048 -17.958785 -45.777792 -132.872192 -93.486042 -0.000003 -0.000002 -0.000006 83.840866 -2.432050 -0.914664 -0.000006 0.000001 -2.999999 -4.999692 -7.998720 0.000055 -17.783545 53.879073 20.983989 -54.040839 125.074902 93.585251 -0.000002 0.000008 0.000004 72.874970 -1.612214 -0.405262 0.000006 -0.000005 2.999969 -5.000165 7.998816 -0.000123 -100.493208 -171.761117 0.034745 179.999991 0.000005 -0.467002 109.027619 -4.351599 -5.690368 -0.000002 0.000000 1.048190 69.802744 7.079003 1.579242 25.456953 -7.355613 0.000087 -99.950038 167.023670 -2.088308 -0.000034 -0.000003 -0.604799 -72.544115 5.526031 6.572697 -0.000002 -0.000001 -1.475710 71.615428 -7.583899 -0.017424 25.460290 7.355621 -0.000822 
54.816402 -26.175810 70.825691 35.109703 -1.810450 -2.884186 2.912228 -0.929815 -0.160769 9.826241 -1.866451 -0.264734 11.471692 -1.869500 -0.242350 -34.175893 10.101265 1.118411 -6.383041 -2.556841 -3.427163 -15.575683 -41.258632 -17.973873 -45.922702 -133.043861 -93.483174 -0.000001 0.000002 -0.000003 83.502232 -2.617062 -0.702082 -0.000007 0.000001 -2.999999 -4.999690 -7.998721 0.000055 -17.788540 53.870887 20.989998 -54.143903 125.265984 93.655895 -0.000001 0.000007 0.000005 72.530387 -1.468226 -0.544855 0.000008 -0.000004 2.999970 -5.000161 7.998813 -0.000128 -100.296144 -171.803669 0.005318 179.999991 0.000004 -0.466006 109.155261 -4.347268 -5.672128 -0.000002 0.000000 1.040679 69.863874 7.063313 1.615446 25.456955 -7.355615 0.000087 -99.750446 167.042480 -2.068900 -0.000033 -0.000004 -0.602505 -72.406439 5.550527 6.566598 -0.000002 -0.000000 -1.466350 71.668369 -7.573802 -0.038788 25.460288 7.355620 -0.000822 
54.808704 -26.267700 70.944687 35.103423 -1.798001 -2.871895 2.906782 -0.930618 -0.161264 9.815350 -1.868327 -0.265557 11.460796 -1.871386 -0.243151 -34.269194 10.016729 1.095417 -6.368354 -2.508197 -3.422385 -15.587274 -41.346260 -17.991516 -46.067495 -133.219069 -93.482798 -0.000001 0.000001 -0.000006 83.161050 -2.804461 -0.489907 -0.000007 0.000004 -2.999999 -4.999698 -7.998719 0.000054 -17.793771 53.862879 20.996350 -54.245298 125.458936 93.726000 -0.000004 0.000005 0.000008 72.186849 -1.323884 -0.682728 0.000008 -0.000006 2.999971 -5.000163 7.998814 -0.000125 -100.097911 -171.847150 -0.025413 179.999991 0.000005 -0.463997 109.283478 -4.341952 -5.653012 -0.000002 0.000000 1.033040 69.924212 7.047197 1.652944 25.456955 -7.355613 0.000087 -99.549727 167.061250 -2.052439 -0.000036 -0.000004 -0.600458 -72.269187 5.575308 6.560911 -0.000001 -0.000000 -1.457280 71.721986 -7.564826 -0.056997 25.460287 7.355620 -0.000823 
54.815304 -26.340996 71.038185 35.096138 -1.785016 -2.859023 2.901256 -0.931413 -0.161721 9.804274 -1.870290 -0.266416 11.449706 -1.873351 -0.243987 -34.362060 9.930960 1.073358 -6.353967 -2.457359 -3.416053 -15.600232 -41.434205 -18.010929 -46.212790 -133.395917 -93.484628 0.000001 0.000001 -0.000003 82.817854 -2.995074 -0.278009 -0.000011 -0.000000 -3.000001 -4.999695 -7.998719 0.000056 -17.799956 53.855427 21.003808 -54.345961 125.654348 93.796584 -0.000002 0.000006 0.000006 71.843638 -1.178628 -0.819189 0.000007 -0.000007 2.999966 -5.000159 7.998817 -0.000128 -99.898586 -171.891560 -0.057136 179.999991 0.000005 -0.463000 109.411591 -4.335847 -5.634060 -0.000002 0.000000 1.025240 69.985690 7.030364 1.692360 25.456955 -7.355614 0.000088 -99.347396 167.079951 -2.037776 -0.000037 -0.000004 -0.598652 -72.132139 5.600720 6.555972 -0.000001 -0.000000 -1.448469 71.776737 -7.557004 -0.071925 25.460290 7.355621 -0.000822 
54.796604 -26.444513 71.169395 35.087932 -1.771556 -2.845630 2.895646 -0.932198 -0.162150 9.793042 -1.872305 -0.267312 11.438515 -1.875375 -0.244858 -34.454527 9.844214 1.052172 -6.339735 -2.404701 -3.408340 -15.614564 -41.522462 -18.032094 -46.357423 -133.574909 -93.487217 0.000001 0.000002 -0.000002 82.472512 -3.188598 -0.066617 -0.000004 0.000002 -2.999999 -4.999690 -7.998718 0.000051 -17.806559 53.848525 21.011860 -54.444551 125.852629 93.865794 -0.000003 0.000006 0.000003 71.500490 -1.032497 -0.954305 0.000008 -0.000005 2.999966 -5.000161 7.998817 -0.000128 -99.698072 -171.936803 -0.090555 179.999991 0.000005 -0.461005 109.539951 -4.328325 -5.613363 -0.000002 0.000000 1.017300 70.048036 7.012986 1.733341 25.456957 -7.355614 0.000088 -99.143447 167.098707 -2.025944 -0.000036 -0.000003 -0.597055 -71.995241 5.626570 6.551500 -0.000002 -0.000000 -1.439880 71.832218 -7.550217 -0.083977 25.460290 7.355619 -0.000822 
54.777504 -26.539709 71.295189 35.078721 -1.757689 -2.831784 2.889972 -0.932970 -0.162556 9.781713 -1.874359 -0.268246 11.427216 -1.877439 -0.245767 -34.546909 9.756540 1.031716 -6.325533 -2.350588 -3.399404 -15.629855 -41.611001 -18.054656 -46.500802 -133.756797 -93.489307 0.000001 0.000001 -0.000003 82.124624 -3.384926 0.144335 -0.000007 0.000002 -3.000000 -4.999692 -7.998720 0.000052 -17.813859 53.842026 21.020681 -54.543015 126.052412 93.936029 -0.000004 0.000009 0.000005 71.157355 -0.885516 -1.088067 0.000007 -0.000005 2.999972 -5.000162 7.998817 -0.000126 -99.496267 -171.982811 -0.125594 179.999991 0.000004 -0.459995 109.668447 -4.320394 -5.592731 -0.000002 0.000000 1.009240 70.111100 6.995151 1.775521 25.456957 -7.355613 0.000086 -98.937981 167.117490 -2.017004 -0.000034 -0.000003 -0.595631 -71.858221 5.652709 6.547213 -0.000001 -0.000000 -1.431490 71.888246 -7.544176 -0.093819 25.460287 7.355619 -0.000822 
54.765903 -26.633718 71.411896 35.068414 -1.743492 -2.817564 2.884274 -0.933727 -0.162947 9.770300 -1.876425 -0.269223 11.415723 -1.879525 -0.246721 -34.639038 9.668298 1.011948 -6.311222 -2.295378 -3.389398 -15.646379 -41.699763 -18.078742 -46.643485 -133.940747 -93.491698 0.000001 0.000001 -0.000004 81.774139 -3.583732 0.354511 -0.000006 -0.000002 -2.999999 -4.999696 -7.998720 0.000057 -17.821364 53.835998 21.029779 -54.639160 126.254817 94.004556 0.000001 0.000006 0.000006 70.813851 -0.737732 -1.220560 0.000004 -0.000006 2.999966 -5.000163 7.998817 -0.000126 -99.293301 -172.029352 -0.162075 179.999991 0.000005 -0.458000 109.797292 -4.311400 -5.571307 -0.000002 0.000000 1.001110 70.174559 6.976962 1.818834 25.456953 -7.355614 0.000088 -98.731020 167.136587 -2.007779 -0.000034 -0.000004 -0.594348 -71.720934 5.678992 6.543125 -0.000001 -0.000000 -1.423240 71.944520 -7.538702 -0.102043 25.460288 7.355621 -0.000823 
54.733402 -26.748194 71.569397 35.056994 -1.729035 -2.803026 2.878558 -0.934464 -0.163330 9.758847 -1.878490 -0.270241 11.404333 -1.881590 -0.247713 -34.731242 9.579617 0.992807 -6.296689 -2.239443 -3.378491 -15.664033 -41.788880 -18.104268 -46.786208 -134.126064 -93.495304 -0.000000 0.000001 -0.000006 81.420575 -3.784925 0.563990 -0.000007 0.000001 -3.000003 -4.999693 -7.998718 0.000051 -17.828863 53.830377 21.038955 -54.734896 126.458480 94.073664 -0.000002 0.000005 0.000006 70.469944 -0.589162 -1.351804 0.000003 -0.000005 2.999968 -5.000162 7.998814 -0.000128 -99.089010 -172.076425 -0.198687 179.999991 0.000004 -0.457003 109.926533 -4.301685 -5.550010 -0.000002 0.000000 0.992925 70.238332 6.958453 1.863194 25.456955 -7.355615 0.000088 -98.522583 167.155971 -2.000470 -0.000035 -0.000005 -0.593169 -71.583149 5.705316 6.539134 -0.000001 -0.000001 -1.415110 72.000671 -7.533682 -0.109053 25.460290 7.355620 -0.000823 
